<svg xmlns="http://www.w3.org/2000/svg" viewBox="0 0 378 378"><defs><style>.cls-1{fill:#59d037;}.cls-2{fill:#fff;}.cls-3{fill:#31ba22;}</style></defs><title>line_icon</title><g id="レイヤー_2" data-name="レイヤー 2"><g id="Layer_1" data-name="Layer 1"><circle class="cls-1" cx="189" cy="189" r="189"/><path class="cls-2" d="M288.308,122.667s-67.5-83.334-172.5-23.5c0,0-63.834,37-41.167,108.5,0,0,20.333,55.166,91.333,64.666,0,0,20.121.834,13.061,21.667s9.939,12.333,9.939,12.333,62.334-29.833,99.334-77.666S301.974,139.5,288.308,122.667Z"/><path class="cls-3" d="M117.146,151.716h0a5.71,5.71,0,0,1,5.71,5.71v40.626a.74.74,0,0,0,.74.74h17.94a5.445,5.445,0,0,1,5.445,5.445h0a5.445,5.445,0,0,1-5.445,5.445h-25.07a5.03,5.03,0,0,1-5.03-5.03V157.426A5.71,5.71,0,0,1,117.146,151.716Z"/><path class="cls-3" d="M158.9,151.716h0a5.67,5.67,0,0,1,5.67,5.669v48.66a5.671,5.671,0,0,1-5.67,5.67h0a5.67,5.67,0,0,1-5.669-5.67v-48.66A5.669,5.669,0,0,1,158.9,151.716Z"/><path class="cls-3" d="M181.818,151.716h0a5.545,5.545,0,0,1,4.649,2.522l23.145,35.6a.483.483,0,0,0,.887-.263V157.426a5.709,5.709,0,0,1,5.71-5.71h0a5.709,5.709,0,0,1,5.709,5.71v46.546a7.743,7.743,0,0,1-7.742,7.743h0A5.984,5.984,0,0,1,209.162,209l-22.984-35.282a.482.482,0,0,0-.886.263V206a5.71,5.71,0,0,1-5.71,5.711h0a5.71,5.71,0,0,1-5.71-5.711V159.663A7.947,7.947,0,0,1,181.818,151.716Z"/><path class="cls-3" d="M237.01,152.583h23.967a5.587,5.587,0,0,1,5.587,5.588h0a5.587,5.587,0,0,1-5.587,5.588H243.982a.522.522,0,0,0-.522.521v11.071a.522.522,0,0,0,.522.522h17.1a5.486,5.486,0,0,1,5.486,5.485h0a5.486,5.486,0,0,1-5.486,5.486h-17.1a.522.522,0,0,0-.522.522V198.4a.522.522,0,0,0,.522.522h16.974a5.608,5.608,0,0,1,5.608,5.608h0a5.608,5.608,0,0,1-5.608,5.608H237.01a4.887,4.887,0,0,1-4.888-4.888V157.471A4.888,4.888,0,0,1,237.01,152.583Z"/></g></g></svg>