<?xml version="1.0" encoding="utf-8"?>
<!-- Generator: Adobe Illustrator 21.0.0, SVG Export Plug-In . SVG Version: 6.00 Build 0)  -->
<svg version="1.1" id="レイヤー_1" xmlns="http://www.w3.org/2000/svg" xmlns:xlink="http://www.w3.org/1999/xlink" x="0px"
	 y="0px" viewBox="0 0 1468.9 1468.9" style="enable-background:new 0 0 1468.9 1468.9;" xml:space="preserve">
<style type="text/css">
	.st0{fill:#55ACED;}
	.st1{fill:#FFFFFF;}
</style>
<title>tw_icpn</title>
<g id="レイヤー_2">
	<g id="_1">
		<circle class="st0" cx="734.5" cy="734.5" r="734.5"/>
		<path class="st1" d="M1170,582c-40.2,16.1-77.7,12.7-77.7,12.7c37.5-15.5,63.3-73.9,63.3-73.9c-29.9,14-60.3,19.3-78.7,21.3
			c-11,1.2-17.7,1.2-17.7,1.2c-50.8-73.3-135.3-65.8-135.3-65.8C777.3,490.9,772.9,644,772.9,644C575.4,653,456.3,528.7,401.5,490.8
			l0,0C366,754.5,583.1,912.5,583.1,912.5c-52.4,39.2-176.4,34.7-176.4,34.7c19.1,26.2,43.6,48,71.8,63.9
			c32.3,18.3,78,30.5,116.3,35.1l-9.3-1.5c3.6,0.6,7.2,1.2,10.9,1.8c232.7,34.5,449.4-126.1,483.9-358.9c0.5-3.3,1-6.7,1.4-10
			c3.1-14.9,4.3-23.7,4.3-23.7C1134,632.5,1170,582,1170,582z"/>
	</g>
</g>
</svg>
